<svg id="Layer_3" data-name="Layer 3" xmlns="http://www.w3.org/2000/svg" viewBox="0 0 590.71 590.72"><path d="M570.15,307.86,707.24,445c34.51,34.5,38.14,87.41,10.24,125.41a98.45,98.45,0,0,1-9.79,11.4,97.55,97.55,0,0,1-138,0l-47.52-47.52L575.39,481l47.14,47.14a15.4,15.4,0,0,0,1.43,1.61,15.73,15.73,0,0,0,1.62,1.44,18.76,18.76,0,0,0,26.3-26.42,17,17,0,0,0-2.94-2.94l-78.6-78.6-106,106,148.4,148.4-47.65,47.66L358.93,519.09Z" transform="translate(-274.8 -307.86)"/><rect x="291.72" y="562.37" width="81.7" height="81.7" transform="translate(-603.93 103.98) rotate(-45)"/><polygon points="532.94 237.59 590.71 295.36 295.36 590.72 89.19 384.55 146.96 326.77 295.36 475.18 532.94 237.59"/></svg>